<?xml version="1.0" encoding="utf-8"?>
<!-- Generator: Adobe Illustrator 23.0.1, SVG Export Plug-In . SVG Version: 6.00 Build 0)  -->
<svg version="1.1" id="Layer_1" xmlns="http://www.w3.org/2000/svg" xmlns:xlink="http://www.w3.org/1999/xlink" x="0px" y="0px"
	 viewBox="0 0 595.28 841.89" style="enable-background:new 0 0 595.28 841.89;" xml:space="preserve">
<style type="text/css">
	.st0{fill:#FFFFFF;stroke:#000000;stroke-miterlimit:10;}
</style>
<path class="st0" d="M394.77,329.07c1.12-12.5,2.28-44.36-15.94-78.26c-2.79-5.19-23.09-41.84-62.32-59.42
	c-64.88-29.07-167.94-0.03-191.3,72.46c-18.24,56.59,17.75,122.1,59.42,147.83c17.87,11.03,46.23,20.58,88.41,34.78
	c28.88,9.72,43.27,13.04,57.97,27.54c3.88,3.82,30.15,29.72,24.64,60.87c-6.21,35.05-48.49,53.13-78.26,55.07
	c-8.47,0.55-47.21,3.08-65.22-24.64c-10.69-16.46-8.48-34.99-7.25-42.03c-20.77-0.97-41.55-1.93-62.32-2.9
	c-3.01,12.12-5.46,30.38,0,50.72c15.95,59.39,83.81,78.49,88.41,79.71l1.45,49.28h65.19v-47.83c10.75-1.88,26.39-5.76,43.51-14.49
	c12.96-6.61,45.15-23.46,63.77-60.87c10.34-20.77,12.11-39.07,12.86-47.64c1.1-12.56,4.26-48.83-18.18-81.5
	c-12.36-17.99-27.66-27.86-38.16-34.63c-7.62-4.91-19.34-11.55-42.49-19.37c-52.33-17.68-60.87-6.89-86.5-21.21
	c-5.87-3.28-42.71-23.87-46.38-62.32c-0.25-2.65-2.53-31.19,17.39-52.17c27.67-29.16,83.75-28.53,111.59,2.9
	c22.3,25.17,16.92,59.52,15.94,65.22C352.26,327.14,373.51,328.11,394.77,329.07z"/>
<path class="st0" d="M212.88,186.67c-0.24-24.03-0.48-48.06-0.73-72.09c24.15,0.48,48.31,0.97,72.46,1.45
	c-0.48,21.34-0.97,42.69-1.45,64.03"/>
</svg>
