<?xml version="1.0" encoding="utf-8"?>
<!-- Generator: Adobe Illustrator 23.0.1, SVG Export Plug-In . SVG Version: 6.00 Build 0)  -->
<svg version="1.1" id="Layer_1" xmlns="http://www.w3.org/2000/svg" xmlns:xlink="http://www.w3.org/1999/xlink" x="0px" y="0px"
	 viewBox="0 0 595.28 841.89" style="enable-background:new 0 0 595.28 841.89;" xml:space="preserve">
<style type="text/css">
	.st0{fill:#FFFFFF;stroke:#000000;stroke-width:15;stroke-miterlimit:10;}
</style>
<path class="st0" d="M199.97,400.03c25.77-32.55,50.02-54.56,67.12-68.49c27.45-22.36,34.72-22.45,52.05-41.1
	c34.24-36.81,36.72-69.56,50.68-68.49c11.63,0.89,21.76,24.51,20.55,43.84c-0.94,15-9.09,25.75-16.44,35.62
	c-11.26,15.11-19.15,17.15-31.93,34.25c-6.54,8.76-10.83,16.73-13.44,22.13c40.76-11.73,73.91,6.65,78.24,27.19
	c4.17,19.79-18.82,39.64-20.55,41.1c11.13,2.58,19.75,11.2,21.92,21.92c2.53,12.51-4.17,25.7-16.44,31.51
	c16.6,3.52,25.59,19.31,21.92,31.51c-2.69,8.93-12.09,15.7-23.29,16.44c5.26,3.13,11.77,8.25,12.33,15.07
	c1.08,13.23-20.96,24.2-30.14,28.77c-49.98,24.87-149.24-23.57-178.08-38.36"/>
</svg>
