<?xml version="1.0" encoding="utf-8"?>
<!-- Generator: Adobe Illustrator 23.0.1, SVG Export Plug-In . SVG Version: 6.00 Build 0)  -->
<svg version="1.1" id="Layer_1" xmlns="http://www.w3.org/2000/svg" xmlns:xlink="http://www.w3.org/1999/xlink" x="0px" y="0px"
	 viewBox="0 0 595.28 841.89" style="enable-background:new 0 0 595.28 841.89;" xml:space="preserve">
<style type="text/css">
	.st0{fill:#FFFFFF;stroke:#000000;stroke-miterlimit:10;}
</style>
<path class="st0" d="M163.99,381.81c0,15.23-9.61,25.78-11.14,27.34c-1.41,1.44-12.22,12.17-27.99,11.79
	c-18.37-0.45-39.13-15.86-39.13-39.13c0-21.61,17.52-39.13,39.13-39.13S163.99,360.2,163.99,381.81z"/>
<circle class="st0" cx="395.67" cy="524.01" r="39.13"/>
<path class="st0" d="M262.54,516.77c0,21.61-17.52,39.13-39.13,39.13s-39.13-17.52-39.13-39.13c0-1.27-0.21-7.11,2.58-14
	c5.38-13.27,19.55-25.22,36.55-25.13C243.34,477.75,262.54,494.39,262.54,516.77z"/>
<circle class="st0" cx="503.12" cy="381.81" r="39.13"/>
<circle class="st0" cx="323.41" cy="296.48" r="39.13"/>
<path class="st0" d="M135.35,465.3"/>
<path class="st0" d="M124.86,420.94c-1.2,4.16-8.32,30.42,7.59,55.95c17.68,28.37,48.88,31.88,52.51,32.23"/>
<path class="st0" d="M143.35,416.24c-0.81,3.86-5.16,26.3,9.39,47.62c15.03,22.01,38.57,25.77,42.37,26.31"/>
<path class="st0" d="M131.97,343.34c15.58,4.41,38.03,8.28,64.25,4.57c13.73-1.94,33.37-4.72,53.62-18.84
	c21.8-15.21,32.12-35.06,36.4-44.85"/>
<path class="st0" d="M290.4,317.49c-4.99,7.45-13.44,18.2-26.63,27.73c-23.21,16.79-47.14,19.73-61.76,21.53
	c-15.26,1.88-29.16,1.4-41.08-0.11"/>
<path class="st0" d="M361.76,304.23c2.82,7.09,8.54,18.8,19.82,29.49c18.22,17.24,39.42,20.91,50.86,22.89
	c8.9,1.54,23.22,2.95,40.87-0.14"/>
<path class="st0" d="M351.58,323.62c7.51,17.99,18.35,28.17,24.35,32.99c18.06,14.51,37.82,17.02,52.17,18.84
	c15.15,1.92,27.86,0.97,36.45-0.22"/>
<path class="st0" d="M481.73,414.58c0.6,5.15,2.72,28.16-13.05,49.28c-18.7,25.04-47.45,27.19-51.58,27.43"/>
<path class="st0" d="M503.12,420.94c-0.78,8.65-3.87,29.92-19.94,50.16c-19.68,24.78-45.76,31.59-53.63,33.34"/>
<path class="st0" d="M261.89,509.8c1.43,2.37,15.88,25.52,44.48,27.97c31.38,2.7,50.33-22.04,51.39-23.48"/>
<path class="st0" d="M252.91,542.46c6.15,4.91,25.2,18.84,53.45,19.95c29.56,1.16,50.33-12.45,56.6-16.92"/>
</svg>
